<svg width="340" height="340" viewBox="0 0 340 340" fill="none" xmlns="http://www.w3.org/2000/svg">
<g clip-path="url(#clip0)">
<path d="M266.221 239.939C264.155 241.918 261.714 243.04 259.147 244.029C257.206 244.755 255.14 245.151 253.512 246.734C253.199 247.064 252.699 247.526 252.198 246.998C251.822 246.668 251.446 246.8 251.384 247.13C251.133 248.318 250.507 248.251 249.694 247.922C249.067 247.724 248.754 247.79 249.255 248.515C248.817 248.779 248.379 249.043 247.878 249.175C240.24 252.078 232.54 254.783 224.589 256.696C220.394 257.686 216.576 259.731 212.506 261.116C204.994 263.623 197.356 264.745 189.53 265.207C184.835 265.537 180.077 265.405 175.382 265.801C165.803 266.658 156.225 267.054 146.646 267.912C140.574 268.44 134.563 268.704 128.491 268.967C122.982 269.165 117.535 268.44 112.088 267.384C103.324 265.669 94.5591 264.283 85.7318 262.898C70.3937 260.523 55.3687 256.564 40.907 250.627C31.8919 246.932 23.2525 242.38 15.2391 236.574C9.66727 232.484 4.59629 227.8 0.84001 221.73C-4.6692 212.691 -4.23103 203.323 2.02944 194.68C6.85 188.017 13.2982 183.597 20.1221 179.77C32.5804 172.777 46.0406 169.94 60.0014 169.214C69.5173 168.753 79.0957 168.753 88.6742 168.753C92.4931 168.753 96.1242 167.499 99.8179 166.707C106.579 165.19 113.341 163.409 120.039 161.627C122.794 160.902 125.486 159.978 127.99 158.527C129.305 157.735 130.995 157.735 132.122 156.415C132.685 155.756 133.499 156.152 134.25 156.613C135.064 157.075 136.066 157.405 136.129 155.756C136.191 154.04 137.005 152.853 138.758 152.523C139.572 152.391 140.198 152.193 140.574 151.335C140.636 151.203 140.699 151.072 140.761 151.072C142.514 151.269 143.078 149.62 144.205 148.828C146.834 147.047 149.463 145.068 152.093 143.353C153.908 142.165 155.536 140.714 157.226 139.526C158.04 138.932 158.979 138.338 159.668 137.613C160.482 136.755 161.358 136.029 162.235 135.172C164.175 133.193 166.617 132.005 168.558 130.092C170.937 127.783 172.877 125.078 175.069 122.571C180.953 115.973 186.525 109.112 193.224 103.372C199.109 98.3581 205.995 95.983 213.508 95.3893C217.327 95.1254 220.895 93.608 224.589 92.6184C228.283 91.5628 231.726 89.8474 235.107 88.0002C237.173 86.8786 238.55 84.7674 240.052 82.8542C244.497 77.5103 248.441 71.5726 254.076 67.4822C258.771 64.0515 263.404 60.357 268.663 57.718C274.109 54.9471 279.681 52.7039 285.629 51.7803C295.144 50.3289 304.41 50.7247 313.55 54.4853C317.745 56.2006 321.626 58.3777 325.195 61.2146C329.765 64.8432 333.458 69.3954 336.651 74.4095C341.847 82.7882 343.538 92.0906 343.914 101.855C344.101 106.605 344.039 111.355 343.162 116.039C342.786 117.886 342.16 119.866 341.91 121.713C341.221 126.595 339.218 130.883 337.34 135.172C335.274 139.724 332.895 144.078 330.516 148.433C328.763 151.665 326.384 154.436 324.944 157.867C324.443 159.12 323.316 160.044 322.503 161.1C321.501 162.353 321.188 163.936 320.311 165.256C317.181 169.874 314.176 174.558 311.046 179.177C305.537 187.225 301.092 196 296.271 204.511C294.205 208.205 292.077 211.9 290.011 215.594C288.821 217.705 287.382 219.619 286.004 221.532C285.19 222.654 284.001 223.709 283.062 224.765C281.747 226.348 279.744 227.272 279.055 229.449C278.679 230.57 277.866 231.428 276.676 231.824C275.236 232.352 274.61 234.001 273.17 234.529C270.916 236.442 268.6 238.223 266.221 239.939ZM111.525 174.888C110.085 174.624 108.645 174.294 107.205 175.218C106.767 175.482 106.204 175.218 105.765 174.954C104.951 174.492 104.012 174.756 103.574 175.218C102.886 176.01 102.134 175.746 101.383 175.746C100.882 175.746 100.381 175.548 99.8805 175.68C96.0617 176.604 92.1176 176.406 88.2987 177.065C86.7336 177.329 85.1058 176.801 83.5407 177.725C83.0398 178.055 82.6017 178.979 82.0382 178.583C81.4122 178.187 82.6016 177.461 81.9755 176.735C80.7861 178.385 79.1584 179.44 77.2177 179.44C75.59 179.44 73.6491 180.694 72.397 178.319C73.1483 179.704 72.898 180.364 71.5833 180.694C70.0808 181.09 68.5155 181.156 67.0756 181.486C65.8861 181.75 64.7593 182.541 63.5072 182.277C61.8168 181.947 60.5022 184.059 58.7493 182.871C58.4989 182.673 57.9354 183.135 58.2484 183.795C58.6241 184.652 60.1266 185.048 60.8778 184.323C61.9421 183.399 63.4446 184.191 64.4462 183.201C65.2601 184.784 66.0114 183.465 66.8253 183.135C67.0131 183.069 67.2009 182.871 67.4513 183.135C68.2026 183.993 69.4546 183.663 70.3937 184.784C70.3937 183.795 69.5173 182.937 70.2685 182.673C71.2076 182.343 70.8945 183.861 71.771 184.257C71.9588 183.201 72.6474 182.871 73.6491 183.003C76.7167 183.531 79.534 182.145 82.3512 181.354C84.0416 180.892 85.7319 180.628 87.3596 180.496C90.2394 180.232 93.1192 179.44 95.9364 178.913C99.2545 178.319 102.635 177.527 105.953 176.604C107.706 176.208 109.835 176.274 111.525 174.888C114.029 174.822 115.031 174.162 115.031 172.513C113.904 173.437 112.214 173.371 111.525 174.888ZM120.79 257.554C123.295 258.28 125.548 258.346 127.74 258.412C145.895 259.005 163.863 256.498 181.893 254.981C180.515 254.717 122.919 257.224 120.79 257.554ZM284.376 206.952C276.926 214.935 269.164 222.72 262.214 231.164C271.918 225.49 278.992 217.046 284.376 206.952ZM4.53362 215.001C4.2206 216.122 4.47105 216.782 4.72147 217.442C5.97356 221.004 8.41508 223.577 10.9193 226.084C12.1088 227.272 12.234 227.272 13.9243 226.348C9.79241 225.424 7.91424 222.983 9.35415 220.476C8.54029 220.015 6.91254 219.487 7.28817 218.893C8.16463 217.244 6.78742 217.376 6.28658 216.98C5.72314 216.518 4.97186 216.188 4.53362 215.001ZM136.379 178.781C131.809 179.704 127.301 181.09 122.856 182.607C127.614 182.343 132.247 181.552 136.379 178.781ZM10.7314 188.479C15.552 185.246 20.4979 182.145 25.5688 179.308C20.1222 181.486 15.1764 184.586 10.7314 188.479ZM142.702 243.567C138.883 242.908 135.377 244.425 131.746 245.283C135.503 245.547 139.071 244.425 142.702 243.567ZM13.1731 227.799C15.3643 230.768 16.4911 230.966 18.244 228.261C16.2406 229.515 15.0512 226.546 13.1731 227.799ZM264.468 233.209C264.406 233.077 264.28 232.946 264.218 232.814C261.088 234.595 258.02 236.442 254.89 238.223C254.952 238.355 255.015 238.487 255.077 238.619C258.458 237.3 261.4 235.189 264.468 233.209ZM160.231 242.644C157.414 242.776 154.534 242.05 151.905 243.633C154.597 243.04 157.477 243.369 160.231 242.644ZM101.32 211.174C103.449 211.108 105.64 211.306 107.643 209.855C105.39 210.052 103.261 210.052 101.32 211.174ZM129.618 208.205C131.12 208.073 132.685 208.007 134.125 206.292C132.185 206.49 130.87 207.216 129.618 208.205ZM105.953 208.733C107.518 208.073 109.271 208.931 111.087 207.677C109.083 207.611 107.456 207.941 105.953 208.733ZM57.7476 184.718C57.372 183.861 56.4954 184.125 56.4328 183.267C56.4328 183.069 54.9303 184.322 55.1807 184.586C55.932 185.246 56.7459 184.454 57.7476 184.718ZM261.588 229.977C260.649 229.845 259.835 229.713 259.397 230.504C259.272 230.768 259.522 231.23 259.898 231.296C260.774 231.56 261.15 230.9 261.588 229.977Z" fill="#FCECE2"/>
<circle cx="170" cy="170" r="118" fill="white" stroke="#12333C" stroke-width="4"/>
<path d="M209 114.067H123C121.343 114.067 120 115.411 120 117.067V226.067C120 227.724 121.343 229.067 123 229.067H209C210.657 229.067 212 227.724 212 226.067V117.067C212 115.411 210.657 114.067 209 114.067Z" fill="white"/>
<path opacity="0.1" d="M212 223.067V226.067C212 226.863 211.684 227.626 211.121 228.189C210.559 228.751 209.796 229.067 209 229.067H123C122.204 229.067 121.441 228.751 120.879 228.189C120.316 227.626 120 226.863 120 226.067V223.067C120 223.863 120.316 224.626 120.879 225.189C121.441 225.751 122.204 226.067 123 226.067H209C209.796 226.067 210.559 225.751 211.121 225.189C211.684 224.626 212 223.863 212 223.067V223.067Z" fill="#12333C"/>
<path d="M203 121.067H129V221.067H203V121.067Z" fill="white"/>
<path d="M203 216.067V221.067H129V216.067H203Z" fill="#CEE0E0"/>
<path d="M223 208.067C235.703 208.067 246 197.77 246 185.067C246 172.365 235.703 162.067 223 162.067C210.297 162.067 200 172.365 200 185.067C200 197.77 210.297 208.067 223 208.067Z" fill="#E5735C"/>
<path opacity="0.1" d="M223 208.067C219.811 208.067 216.657 207.404 213.739 206.119C210.82 204.835 208.201 202.958 206.046 200.607C203.892 198.256 202.25 195.482 201.224 192.463C200.199 189.444 199.813 186.244 200.09 183.067C200.598 188.793 203.232 194.121 207.472 198.002C211.712 201.882 217.252 204.035 223 204.035C228.748 204.035 234.288 201.882 238.528 198.002C242.769 194.121 245.402 188.793 245.91 183.067C246.187 186.244 245.801 189.444 244.776 192.463C243.75 195.482 242.108 198.256 239.954 200.607C237.8 202.958 235.18 204.835 232.261 206.119C229.343 207.404 226.189 208.067 223 208.067Z" fill="#12333C"/>
<path d="M212 205.257V209.257C208.238 207.202 205.122 204.142 203 200.417V196.417C205.121 200.142 208.237 203.203 212 205.257Z" fill="#12333C"/>
<path d="M203 196.427V200.427C200.691 196.375 199.676 191.713 200.09 187.067C200.374 190.361 201.366 193.554 203 196.427V196.427Z" fill="#9DA4A4"/>
<path d="M195 137.067H137V150.067H195V137.067Z" fill="white"/>
<path d="M173.93 110.067C173.674 108.145 172.729 106.382 171.27 105.104C169.812 103.827 167.939 103.123 166 103.123C164.061 103.123 162.188 103.827 160.73 105.104C159.271 106.382 158.326 108.145 158.07 110.067H146V126.067H186V110.067H173.93ZM166 114.067C165.407 114.067 164.827 113.891 164.333 113.561C163.84 113.232 163.455 112.763 163.228 112.215C163.001 111.667 162.942 111.064 163.058 110.482C163.173 109.9 163.459 109.365 163.879 108.946C164.298 108.526 164.833 108.24 165.415 108.125C165.997 108.009 166.6 108.068 167.148 108.295C167.696 108.522 168.165 108.907 168.494 109.4C168.824 109.894 169 110.474 169 111.067C169 111.863 168.684 112.626 168.121 113.188C167.559 113.751 166.796 114.067 166 114.067V114.067Z" fill="#CEE0E0"/>
<path opacity="0.1" d="M186 122.067H146V126.067H186V122.067Z" fill="#12333C"/>
<path d="M166 115.067C166.791 115.067 167.564 114.833 168.222 114.393C168.88 113.954 169.393 113.329 169.696 112.598C169.998 111.867 170.077 111.063 169.923 110.287C169.769 109.511 169.388 108.798 168.828 108.239C168.269 107.68 167.556 107.299 166.78 107.144C166.004 106.99 165.2 107.069 164.469 107.372C163.738 107.675 163.114 108.187 162.674 108.845C162.235 109.503 162 110.276 162 111.067C162 112.128 162.421 113.146 163.172 113.896C163.922 114.646 164.939 115.067 166 115.067ZM166 109.067C166.396 109.067 166.782 109.185 167.111 109.404C167.44 109.624 167.696 109.937 167.848 110.302C167.999 110.667 168.039 111.07 167.962 111.458C167.884 111.846 167.694 112.202 167.414 112.482C167.135 112.761 166.778 112.952 166.39 113.029C166.002 113.106 165.6 113.067 165.235 112.915C164.869 112.764 164.557 112.507 164.337 112.179C164.117 111.85 164 111.463 164 111.067C164 110.537 164.211 110.028 164.586 109.653C164.961 109.278 165.47 109.067 166 109.067Z" fill="#12333C"/>
<path d="M213 163.227V117.067C213 116.006 212.579 114.989 211.828 114.239C211.078 113.489 210.061 113.067 209 113.067H187V110.067C187 109.802 186.895 109.548 186.707 109.36C186.52 109.173 186.265 109.067 186 109.067H174.79C174.349 107.064 173.238 105.271 171.639 103.986C170.041 102.701 168.051 102 166 102C163.949 102 161.959 102.701 160.361 103.986C158.762 105.271 157.651 107.064 157.21 109.067H146C145.735 109.067 145.48 109.173 145.293 109.36C145.105 109.548 145 109.802 145 110.067V113.067H123C121.939 113.067 120.922 113.489 120.172 114.239C119.421 114.989 119 116.006 119 117.067V226.067C119 227.128 119.421 228.145 120.172 228.896C120.922 229.646 121.939 230.067 123 230.067H209C210.061 230.067 211.078 229.646 211.828 228.896C212.579 228.145 213 227.128 213 226.067V206.907C216.656 208.573 220.672 209.294 224.679 209.005C228.686 208.716 232.556 207.425 235.935 205.251C239.314 203.078 242.093 200.091 244.017 196.564C245.942 193.038 246.951 189.085 246.951 185.067C246.951 181.05 245.942 177.096 244.017 173.57C242.093 170.043 239.314 167.056 235.935 164.883C232.556 162.709 228.686 161.419 224.679 161.129C220.672 160.84 216.656 161.561 213 163.227V163.227ZM209 115.067C209.53 115.067 210.039 115.278 210.414 115.653C210.789 116.028 211 116.537 211 117.067V164.287C208.294 165.84 205.916 167.905 204 170.367V121.067C204 120.802 203.895 120.548 203.707 120.36C203.52 120.173 203.265 120.067 203 120.067H187V115.067H209ZM146 127.067H186C186.265 127.067 186.52 126.962 186.707 126.774C186.895 126.587 187 126.332 187 126.067V122.067H202V173.457C200.035 177.011 199.005 181.006 199.005 185.067C199.005 189.128 200.035 193.123 202 196.677V220.067H130V122.067H145V126.067C145 126.332 145.105 126.587 145.293 126.774C145.48 126.962 145.735 127.067 146 127.067ZM147 111.067H158.07C158.317 111.069 158.556 110.979 158.741 110.814C158.926 110.65 159.043 110.423 159.07 110.177C159.322 108.523 160.159 107.013 161.429 105.923C162.698 104.832 164.316 104.232 165.99 104.232C167.664 104.232 169.282 104.832 170.551 105.923C171.821 107.013 172.658 108.523 172.91 110.177C172.937 110.423 173.054 110.65 173.239 110.814C173.424 110.979 173.663 111.069 173.91 111.067H185V125.067H147V111.067ZM211 226.067C211 226.598 210.789 227.106 210.414 227.481C210.039 227.856 209.53 228.067 209 228.067H123C122.47 228.067 121.961 227.856 121.586 227.481C121.211 227.106 121 226.598 121 226.067V117.067C121 116.537 121.211 116.028 121.586 115.653C121.961 115.278 122.47 115.067 123 115.067H145V120.067H129C128.735 120.067 128.48 120.173 128.293 120.36C128.105 120.548 128 120.802 128 121.067V221.067C128 221.332 128.105 221.587 128.293 221.774C128.48 221.962 128.735 222.067 129 222.067H203C203.265 222.067 203.52 221.962 203.707 221.774C203.895 221.587 204 221.332 204 221.067V199.767C205.916 202.23 208.294 204.295 211 205.847V226.067ZM223 207.067C218.649 207.067 214.395 205.777 210.777 203.359C207.16 200.942 204.34 197.506 202.675 193.486C201.01 189.466 200.574 185.043 201.423 180.775C202.272 176.508 204.367 172.588 207.444 169.511C210.52 166.434 214.44 164.339 218.708 163.49C222.976 162.641 227.399 163.077 231.419 164.742C235.439 166.407 238.875 169.227 241.292 172.845C243.71 176.462 245 180.716 245 185.067C245 190.902 242.682 196.498 238.556 200.624C234.431 204.749 228.835 207.067 223 207.067V207.067Z" fill="#12333C"/>
<path d="M234.28 176.347L219 191.627L211.72 184.347C211.529 184.156 211.27 184.049 211 184.049C210.73 184.049 210.471 184.156 210.28 184.347C210.089 184.538 209.982 184.797 209.982 185.067C209.982 185.337 210.089 185.596 210.28 185.787C218.91 194.417 218.4 194.067 219 194.067C219.6 194.067 218.2 195.287 235.72 177.767C235.908 177.576 236.013 177.318 236.011 177.05C236.009 176.782 235.901 176.525 235.71 176.337C235.519 176.149 235.261 176.044 234.993 176.046C234.725 176.048 234.468 176.156 234.28 176.347V176.347Z" fill="white"/>
<path d="M136 137.067V150.067C136 150.333 136.105 150.587 136.293 150.774C136.48 150.962 136.735 151.067 137 151.067H195C195.265 151.067 195.52 150.962 195.707 150.774C195.895 150.587 196 150.333 196 150.067V137.067C196 136.802 195.895 136.548 195.707 136.36C195.52 136.173 195.265 136.067 195 136.067H137C136.735 136.067 136.48 136.173 136.293 136.36C136.105 136.548 136 136.802 136 137.067ZM138 138.067H194V149.067H138V138.067Z" fill="#12333C"/>
<path d="M195 160.067H143C142.735 160.067 142.48 160.173 142.293 160.36C142.105 160.548 142 160.802 142 161.067C142 161.333 142.105 161.587 142.293 161.774C142.48 161.962 142.735 162.067 143 162.067H195C195.265 162.067 195.52 161.962 195.707 161.774C195.895 161.587 196 161.333 196 161.067C196 160.802 195.895 160.548 195.707 160.36C195.52 160.173 195.265 160.067 195 160.067Z" fill="#12333C"/>
<path d="M195 168.067H137C136.735 168.067 136.48 168.173 136.293 168.36C136.105 168.548 136 168.802 136 169.067C136 169.333 136.105 169.587 136.293 169.774C136.48 169.962 136.735 170.067 137 170.067H195C195.265 170.067 195.52 169.962 195.707 169.774C195.895 169.587 196 169.333 196 169.067C196 168.802 195.895 168.548 195.707 168.36C195.52 168.173 195.265 168.067 195 168.067Z" fill="#12333C"/>
<path d="M195 176.067H137C136.735 176.067 136.48 176.173 136.293 176.36C136.105 176.548 136 176.802 136 177.067C136 177.333 136.105 177.587 136.293 177.774C136.48 177.962 136.735 178.067 137 178.067H195C195.265 178.067 195.52 177.962 195.707 177.774C195.895 177.587 196 177.333 196 177.067C196 176.802 195.895 176.548 195.707 176.36C195.52 176.173 195.265 176.067 195 176.067Z" fill="#12333C"/>
<path d="M137 186.067H167C167.265 186.067 167.52 185.962 167.707 185.774C167.895 185.587 168 185.333 168 185.067C168 184.802 167.895 184.548 167.707 184.36C167.52 184.173 167.265 184.067 167 184.067H137C136.735 184.067 136.48 184.173 136.293 184.36C136.105 184.548 136 184.802 136 185.067C136 185.333 136.105 185.587 136.293 185.774C136.48 185.962 136.735 186.067 137 186.067Z" fill="#12333C"/>
<path d="M195 192.067H143C142.735 192.067 142.48 192.173 142.293 192.36C142.105 192.548 142 192.802 142 193.067C142 193.333 142.105 193.587 142.293 193.774C142.48 193.962 142.735 194.067 143 194.067H195C195.265 194.067 195.52 193.962 195.707 193.774C195.895 193.587 196 193.333 196 193.067C196 192.802 195.895 192.548 195.707 192.36C195.52 192.173 195.265 192.067 195 192.067Z" fill="#12333C"/>
<path d="M195 200.067H137C136.735 200.067 136.48 200.173 136.293 200.36C136.105 200.548 136 200.802 136 201.067C136 201.333 136.105 201.587 136.293 201.774C136.48 201.962 136.735 202.067 137 202.067H195C195.265 202.067 195.52 201.962 195.707 201.774C195.895 201.587 196 201.333 196 201.067C196 200.802 195.895 200.548 195.707 200.36C195.52 200.173 195.265 200.067 195 200.067Z" fill="#12333C"/>
<path d="M183 208.067H137C136.735 208.067 136.48 208.173 136.293 208.36C136.105 208.548 136 208.802 136 209.067C136 209.333 136.105 209.587 136.293 209.774C136.48 209.962 136.735 210.067 137 210.067H183C183.265 210.067 183.52 209.962 183.707 209.774C183.895 209.587 184 209.333 184 209.067C184 208.802 183.895 208.548 183.707 208.36C183.52 208.173 183.265 208.067 183 208.067Z" fill="#12333C"/>
</g>
<defs>
<clipPath id="clip0">
<rect width="340" height="340" fill="white"/>
</clipPath>
</defs>
</svg>
