<svg width="340" height="340" viewBox="0 0 340 340" fill="none" xmlns="http://www.w3.org/2000/svg">
<path d="M88.1413 80.3016C89.9665 78.4461 91.9946 78.8029 93.279 81.0153C93.4818 81.4435 93.752 81.729 94.09 81.3721C95.1716 80.3016 96.1182 80.8725 97.335 81.2294C98.349 81.5148 99.1601 82.2999 100.242 82.3713C100.715 82.3713 101.12 82.7994 101.188 83.3704C101.256 84.2268 102.067 84.0841 102.337 84.3696C103.825 86.011 106.664 84.5837 107.61 87.2243C109.773 86.8674 110.044 89.508 111.869 90.1503C113.897 90.7926 115.452 92.8624 117.074 94.5038C119.711 97.2158 122.347 99.9278 124.375 103.139C127.214 107.493 131.135 110.776 134.312 114.772C135.191 115.843 136.678 116.414 137.49 117.627C139.382 120.268 142.762 121.195 144.317 124.264C148.779 126.334 151.415 130.759 155.404 133.542C163.178 138.895 171.155 143.819 179.74 147.744C186.973 151.098 194.341 154.024 201.98 156.308C207.997 158.092 214.284 158.663 220.435 159.663C232.671 161.589 244.974 162.66 257.21 164.444C265.457 165.657 273.569 167.727 281.546 170.296C293.173 174.007 304.327 178.86 315.143 184.713C321.903 188.352 328.19 192.848 333.598 198.629C339.885 205.481 342.048 219.469 337.789 227.248C336.099 230.245 334.072 233.029 331.503 235.241C330.286 236.311 329.137 237.453 327.987 238.667C325.689 241.022 322.985 242.735 320.551 244.876C320.011 245.304 319.47 245.946 318.591 245.589C318.321 245.447 318.118 245.518 317.983 245.732C313.453 250.87 307.505 253.368 301.488 255.723C292.768 259.149 283.642 260.291 274.38 260.933C260.86 261.861 247.408 262.147 233.888 261.933C221.72 261.718 209.619 260.648 197.519 259.506C182.849 258.079 168.18 256.58 153.511 255.367C136.205 253.939 118.832 252.94 101.526 251.085C90.5072 249.871 79.5562 248.087 68.6725 245.875C55.7608 243.306 43.2546 239.38 31.8301 232.244C22.7041 226.605 14.6597 219.326 8.57564 210.12C0.936798 198.629 -2.44326 185.712 1.95077 172.009C5.46599 161.304 6.88557 150.385 7.83197 139.18C9.04878 124.336 15.0652 111.846 26.8953 103.068C30.0049 100.713 32.2357 97.2872 35.2101 94.8607C38.3874 92.2201 41.4295 89.3653 44.9447 87.2956C54.2736 81.8717 64.2106 78.8743 74.8239 78.2319C75.9731 78.1606 77.4606 77.4469 78.4746 78.9456C78.5422 79.017 78.9478 78.9457 79.1506 78.8029C81.9222 77.4469 84.6936 78.5175 87.3976 78.8029C88.344 78.7316 88.2765 78.8743 88.1413 80.3016ZM201.102 251.584C181.971 249.229 162.907 246.588 143.641 246.16C162.772 247.944 181.903 249.729 201.102 251.584ZM65.4952 82.2999C64.7515 81.6576 64.0756 81.9431 63.5348 82.0858C57.4508 84.1555 51.1637 85.5114 45.7557 89.4366C45.4177 89.7221 45.0123 89.9362 44.6067 90.079C42.5787 90.7926 41.0913 92.3628 39.3337 93.576C39.0633 93.7901 38.7254 94.2183 39.131 94.5752C39.469 94.932 39.7393 94.5038 40.0773 94.2897C41.4293 93.4333 42.6463 92.4341 43.9984 91.5777C49.2036 88.2948 54.6116 85.5828 60.4928 83.87C62.1828 83.4418 63.7375 82.8708 65.4952 82.2999ZM257.007 218.755C262.212 220.325 285.737 220.111 287.968 218.47C277.558 218.898 267.282 218.898 257.007 218.755ZM266.944 252.797C255.993 252.94 244.974 252.726 234.023 253.582C245.042 253.797 255.993 253.582 266.944 252.797ZM158.108 153.882C158.175 153.668 158.243 153.525 158.378 153.311C154.457 151.384 150.604 149.528 146.683 147.601C149.32 152.312 154.119 152.169 158.108 153.882ZM27.3009 122.623C29.3965 119.268 32.2357 116.485 34.1961 113.131C30.6133 115.2 28.4501 118.483 27.3009 122.623ZM17.2285 150.527C19.5269 143.034 22.0958 135.683 24.6646 128.332C21.4874 135.469 18.7833 142.82 17.2285 150.527ZM32.1681 222.395C28.2473 219.397 24.8672 215.615 20.4732 213.26C23.9208 216.971 27.8417 219.968 32.1681 222.395ZM257.616 260.862C247.611 260.862 237.538 260.862 227.533 260.862C237.538 261.219 247.611 261.29 257.616 260.862ZM68.4018 108.421C73.2015 106.993 78.1364 106.065 83.0036 104.852C77.866 104.781 73.0663 106.351 68.4018 108.421ZM37.9143 170.653C37.8467 169.226 37.1705 169.226 36.5621 169.44C34.9397 169.94 33.5202 171.081 32.1006 172.009C31.7626 172.223 31.6273 172.651 31.8301 173.008C32.0329 173.437 32.5061 173.222 32.8441 173.08C34.2637 172.509 35.6834 171.938 37.103 171.295C37.5086 171.081 37.9143 170.867 37.9143 170.653ZM76.6492 116.485C71.5792 117.77 66.9149 119.982 62.5885 122.979C67.1177 120.482 71.9172 118.555 76.6492 116.485ZM34.3313 122.266C31.7625 125.192 30.6133 128.903 29.4641 132.543C31.0189 129.117 32.7089 125.691 34.3313 122.266ZM54.2734 231.673C56.8422 232.672 59.4111 233.457 62.1151 233.742C59.6139 232.672 57.1126 231.458 54.2734 231.673ZM298.176 244.804C300.204 244.519 302.029 243.948 303.651 242.735C301.758 243.163 299.595 243.091 298.176 244.804ZM214.622 259.934C218.137 260.006 221.72 261.219 225.708 260.577C221.787 260.362 218.205 260.148 214.622 259.934ZM107.069 119.911C107.475 122.765 109.773 121.695 111.058 122.48C109.909 121.481 108.759 120.41 107.069 119.911ZM153.781 254.368C151.28 254.225 148.779 253.511 146.21 254.011C148.711 253.797 151.213 254.796 153.781 254.368ZM249.977 259.363C249.977 259.435 249.977 259.435 249.977 259.506C252.681 259.506 255.385 259.506 258.089 259.506C258.089 259.435 258.089 259.435 258.089 259.363C255.385 259.363 252.681 259.363 249.977 259.363ZM267.282 260.719C267.282 260.648 267.282 260.577 267.35 260.577C264.849 260.577 262.348 260.577 259.846 260.577C259.846 260.648 259.846 260.719 259.846 260.719C262.348 260.719 264.849 260.719 267.282 260.719ZM255.452 219.041C255.52 218.898 255.52 218.755 255.588 218.612C253.965 218.612 252.343 218.612 250.18 218.612C252.208 218.755 253.83 218.898 255.452 219.041ZM313.251 202.769C313.251 202.626 313.318 202.555 313.318 202.412C311.899 202.055 310.479 201.627 309.127 201.27C309.059 201.484 309.06 201.698 308.992 201.912C310.412 202.198 311.831 202.483 313.251 202.769ZM35.6158 168.726C35.5482 168.584 35.4805 168.441 35.3453 168.227C34.2637 168.94 32.9793 169.369 32.3033 170.725C33.4525 170.082 34.5342 169.44 35.6158 168.726ZM13.916 171.724C13.578 173.437 12.9021 175.078 13.1725 176.862C13.5781 175.221 14.3892 173.579 13.916 171.724Z" fill="#FCECE2"/>
<circle cx="170" cy="170" r="118" fill="white" stroke="#12333C" stroke-width="4"/>
<path d="M223 107C220.348 107 217.804 108.054 215.929 109.929C214.054 111.804 213 114.348 213 117V223C213 225.652 211.946 228.196 210.071 230.071C208.196 231.946 205.652 233 203 233C200.348 233 197.804 231.946 195.929 230.071C194.054 228.196 193 225.652 193 223V215H127V117C127 114.348 128.054 111.804 129.929 109.929C131.804 108.054 134.348 107 137 107H223Z" fill="white"/>
<path d="M233 117V125H213V117C213 114.348 214.054 111.804 215.929 109.929C217.804 108.054 220.348 107 223 107C225.652 107 228.196 108.054 230.071 109.929C231.946 111.804 233 114.348 233 117V117Z" fill="#CEE0E0"/>
<path d="M203 233H117C114.348 233 111.804 231.946 109.929 230.071C108.054 228.196 107 225.652 107 223V215H193V223C193 225.652 194.054 228.196 195.929 230.071C197.804 231.946 200.348 233 203 233V233Z" fill="#CEE0E0"/>
<path opacity="0.1" d="M233 121H213V125H233V121Z" fill="#12333C"/>
<path opacity="0.1" d="M203 233H117C115.448 233 113.916 232.639 112.528 231.944C111.139 231.25 109.931 230.242 109 229H195C195.931 230.242 197.139 231.25 198.528 231.944C199.916 232.639 201.448 233 203 233V233Z" fill="#12333C"/>
<path d="M223 106H137C134.083 106 131.285 107.159 129.222 109.222C127.159 111.285 126 114.083 126 117V214H107C106.735 214 106.48 214.105 106.293 214.293C106.105 214.48 106 214.735 106 215V223C106 225.917 107.159 228.715 109.222 230.778C111.285 232.841 114.083 234 117 234H203C205.917 234 208.715 232.841 210.778 230.778C212.841 228.715 214 225.917 214 223V126H233C233.265 126 233.52 125.895 233.707 125.707C233.895 125.52 234 125.265 234 125V117C234 114.083 232.841 111.285 230.778 109.222C228.715 107.159 225.917 106 223 106ZM196.62 232H117C114.613 232 112.324 231.052 110.636 229.364C108.948 227.676 108 225.387 108 223V216H192C192 222.29 191 228 196.62 232ZM212 223C212 225.387 211.052 227.676 209.364 229.364C207.676 231.052 205.387 232 203 232C200.613 232 198.324 231.052 196.636 229.364C194.948 227.676 194 225.387 194 223V215C194 214.735 193.895 214.48 193.707 214.293C193.52 214.105 193.265 214 193 214H128V117C128 114.613 128.948 112.324 130.636 110.636C132.324 108.948 134.613 108 137 108C222.6 108 216.74 107.92 216.41 108.17C214.327 109.722 212.861 111.961 212.27 114.49C212.19 114.836 212.13 116.816 212.085 120C211.604 154.331 212 188.667 212 223ZM232 124H214V117C214 114.613 214.948 112.324 216.636 110.636C218.324 108.948 220.613 108 223 108C225.387 108 227.676 108.948 229.364 110.636C231.052 112.324 232 114.613 232 117V124Z" fill="#12333C"/>
<path d="M175.042 170.004C176.794 170.564 178.712 170.049 179.949 168.687C181.02 167.508 182.875 167.508 183.947 168.687C185.183 170.049 187.101 170.564 188.854 170.004C190.366 169.521 191.973 170.452 192.313 172.009C192.705 173.805 194.107 175.216 195.906 175.611C197.459 175.951 198.387 177.563 197.904 179.085C197.347 180.837 197.857 182.76 199.216 184.002C200.396 185.08 200.396 186.939 199.216 188.017C197.857 189.259 197.347 191.182 197.904 192.935C198.387 194.456 197.459 196.068 195.906 196.408C194.107 196.803 192.705 198.214 192.313 200.01C191.973 201.567 190.366 202.498 188.854 202.015C187.101 201.455 185.183 201.97 183.947 203.332C182.875 204.511 181.02 204.511 179.949 203.332C178.712 201.97 176.794 201.455 175.042 202.015C173.53 202.498 171.922 201.567 171.583 200.01C171.191 198.214 169.789 196.803 167.99 196.408C166.437 196.068 165.509 194.456 165.992 192.935C166.549 191.182 166.039 189.259 164.679 188.017C163.499 186.939 163.499 185.08 164.679 184.002C166.039 182.76 166.549 180.837 165.992 179.085C165.509 177.563 166.437 175.951 167.99 175.611C169.789 175.216 171.191 173.805 171.583 172.009C171.922 170.452 173.53 169.521 175.042 170.004Z" fill="#E5735C" stroke="#12333C" stroke-width="2"/>
<path d="M189.936 181.184L180.543 190.501L176.068 186.062C175.951 185.945 175.792 185.88 175.626 185.88C175.46 185.88 175.301 185.945 175.183 186.062C175.066 186.178 175 186.336 175 186.501C175 186.666 175.066 186.824 175.183 186.94C180.488 192.202 180.175 191.989 180.543 191.989C180.912 191.989 180.052 192.733 190.821 182.05C190.937 181.933 191.001 181.776 191 181.612C190.999 181.449 190.932 181.292 190.815 181.178C190.697 181.063 190.539 180.999 190.374 181C190.209 181.001 190.052 181.067 189.936 181.184V181.184Z" fill="white"/>
<path d="M199 134H147C146.735 134 146.48 134.105 146.293 134.293C146.105 134.48 146 134.735 146 135C146 135.265 146.105 135.52 146.293 135.707C146.48 135.895 146.735 136 147 136H199C199.265 136 199.52 135.895 199.707 135.707C199.895 135.52 200 135.265 200 135C200 134.735 199.895 134.48 199.707 134.293C199.52 134.105 199.265 134 199 134Z" fill="#12333C"/>
<path d="M199 142H141C140.735 142 140.48 142.105 140.293 142.293C140.105 142.48 140 142.735 140 143C140 143.265 140.105 143.52 140.293 143.707C140.48 143.895 140.735 144 141 144H199C199.265 144 199.52 143.895 199.707 143.707C199.895 143.52 200 143.265 200 143C200 142.735 199.895 142.48 199.707 142.293C199.52 142.105 199.265 142 199 142Z" fill="#12333C"/>
<path d="M199 150H141C140.735 150 140.48 150.105 140.293 150.293C140.105 150.48 140 150.735 140 151C140 151.265 140.105 151.52 140.293 151.707C140.48 151.895 140.735 152 141 152H199C199.265 152 199.52 151.895 199.707 151.707C199.895 151.52 200 151.265 200 151C200 150.735 199.895 150.48 199.707 150.293C199.52 150.105 199.265 150 199 150Z" fill="#12333C"/>
<path d="M141 160H171C171.265 160 171.52 159.895 171.707 159.707C171.895 159.52 172 159.265 172 159C172 158.735 171.895 158.48 171.707 158.293C171.52 158.105 171.265 158 171 158H141C140.735 158 140.48 158.105 140.293 158.293C140.105 158.48 140 158.735 140 159C140 159.265 140.105 159.52 140.293 159.707C140.48 159.895 140.735 160 141 160Z" fill="#12333C"/>
</svg>
